<svg width="18" height="19" viewBox="0 0 18 19" fill="none" xmlns="http://www.w3.org/2000/svg">
<g clip-path="url(#clip0_3599_8200)">
<path d="M11.536 3.62575C11.8621 3.24989 12.1108 2.81332 12.2677 2.3411C12.4246 1.86887 12.4867 1.37031 12.4504 0.874023C11.4492 0.954839 10.5199 1.42571 9.86256 2.18519C9.54779 2.54919 9.30926 2.97265 9.16109 3.43049C9.01292 3.88834 8.95813 4.37126 8.99995 4.85066C9.48831 4.85473 9.97106 4.74637 10.4108 4.53396C10.8506 4.32155 11.2356 4.0108 11.536 3.62575ZM13.7098 10.0436C13.7156 9.38259 13.8897 8.73398 14.2157 8.15895C14.5417 7.58392 15.0088 7.10143 15.573 6.75703C15.217 6.24398 14.7463 5.82095 14.1983 5.52149C13.6502 5.22203 13.04 5.05437 12.4159 5.03181C11.0702 4.89379 9.82806 5.81678 9.11209 5.81678C8.39612 5.81678 7.38687 5.04906 6.26547 5.06631C5.53237 5.09046 4.81803 5.3042 4.19214 5.68669C3.56626 6.06918 3.05018 6.60735 2.69427 7.24872C1.17607 9.88831 2.30609 13.8132 3.82429 15.9438C4.51437 16.9876 5.37698 18.1694 6.51563 18.1262C7.65428 18.0831 8.0252 17.4189 9.34499 17.4189C10.6648 17.4189 11.0702 18.1262 12.1916 18.1004C13.313 18.0745 14.1066 17.0307 14.8312 15.987C15.3445 15.2292 15.7454 14.4011 16.0216 13.5285C15.338 13.237 14.7547 12.7516 14.3439 12.1322C13.933 11.5129 13.7126 10.7868 13.7098 10.0436Z" fill="white"/>
</g>
<defs>
<clipPath id="clip0_3599_8200">
<rect width="18" height="18" fill="white" transform="translate(0 0.5)"/>
</clipPath>
</defs>
</svg>
