<svg width="24" height="24" viewBox="0 0 24 24" fill="none" xmlns="http://www.w3.org/2000/svg">
<g id="action/arrow-right">
<path id="Vector" d="M10.295 17.2998C10.1117 17.1165 10.02 16.8831 10.02 16.5998C10.02 16.3165 10.1117 16.0831 10.295 15.8998L14.195 11.9998L10.295 8.0998C10.1117 7.91647 10.02 7.68314 10.02 7.3998C10.02 7.11647 10.1117 6.88314 10.295 6.6998C10.4784 6.51647 10.7117 6.4248 10.995 6.4248C11.2784 6.4248 11.5117 6.51647 11.695 6.6998L16.295 11.2998C16.395 11.3998 16.466 11.5081 16.508 11.6248C16.5494 11.7415 16.57 11.8665 16.57 11.9998C16.57 12.1331 16.5494 12.2581 16.508 12.3748C16.466 12.4915 16.395 12.5998 16.295 12.6998L11.695 17.2998C11.5117 17.4831 11.2784 17.5748 10.995 17.5748C10.7117 17.5748 10.4784 17.4831 10.295 17.2998Z" fill="#8F8F8F"/>
</g>
</svg>
