<svg width="32" height="32" viewBox="0 0 32 32" fill="none" xmlns="http://www.w3.org/2000/svg">
<g id="action/arrow-left">
<path id="Vector" d="M16.4001 23.0668L10.2668 16.9334C10.1335 16.8001 10.0393 16.6557 9.98415 16.5001C9.92815 16.3446 9.90015 16.1779 9.90015 16.0001C9.90015 15.8223 9.92815 15.6557 9.98415 15.5001C10.0393 15.3446 10.1335 15.2001 10.2668 15.0668L16.4001 8.93344C16.6446 8.68899 16.9557 8.56677 17.3335 8.56677C17.7113 8.56677 18.0224 8.68899 18.2668 8.93344C18.5113 9.17788 18.6335 9.48899 18.6335 9.86677C18.6335 10.2446 18.5113 10.5557 18.2668 10.8001L13.0668 16.0001L18.2668 21.2001C18.5113 21.4445 18.6335 21.7557 18.6335 22.1334C18.6335 22.5112 18.5113 22.8223 18.2668 23.0668C18.0224 23.3112 17.7113 23.4334 17.3335 23.4334C16.9557 23.4334 16.6446 23.3112 16.4001 23.0668Z" fill="white"/>
</g>
</svg>
