<svg width="24" height="24" viewBox="0 0 24 24" fill="none" xmlns="http://www.w3.org/2000/svg">
<path d="M15.435 8.70028L13.8495 6.37015L13.8492 6.36969C13.472 5.81401 13.6278 5.06524 14.1868 4.69967M15.435 8.70028L14.4607 5.118M15.435 8.70028H8.565L10.1505 6.37015L10.1505 6.37011C10.5284 5.81474 10.372 5.06496 9.81296 4.69955L15.435 8.70028ZM14.1868 4.69967C14.187 4.69959 14.1871 4.6995 14.1872 4.69941L14.4607 5.118M14.1868 4.69967C14.1868 4.69972 14.1867 4.69977 14.1866 4.69982L14.4607 5.118M14.1868 4.69967C14.7399 4.33734 15.4912 4.48024 15.8651 5.03107M14.4607 5.118C14.7886 4.9031 15.2329 4.9899 15.4514 5.31189M15.8651 5.03107L15.8648 5.03067L15.4514 5.31189M15.8651 5.03107L18.361 8.70028M15.8651 5.03107L15.4514 5.31189M15.4514 5.31189L18.361 8.70028M18.361 8.70028H18.0964V9.20028L18.5098 8.91906L18.361 8.70028ZM18.361 8.70028H21.2857C21.9466 8.70028 22.5 9.22824 22.5 9.90026C22.5 10.5723 21.9466 11.1002 21.2857 11.1002H20.9736M18.361 8.70028L19.9643 17.0744C19.8721 18.1544 18.9343 19 17.8286 19H6.17143C5.06571 19 4.12786 18.1544 4.03643 17.0744M20.9736 11.1002L21.0125 10.6426L20.5143 10.6002V11.1002H20.9736ZM20.9736 11.1002L20.4625 17.1167L20.4625 17.1169C20.3476 18.4638 19.1856 19.5 17.8286 19.5H6.17143C4.81449 19.5 3.65238 18.464 3.53823 17.1167L4.03643 17.0744M4.03643 17.0744L3.53821 17.1165M4.03643 17.0744L3.48571 10.6002H2.71429C2.32 10.6002 2 10.2866 2 9.90026C2 9.51387 2.32 9.20028 2.71429 9.20028L3.53821 17.1165M3.53821 17.1165L3.02644 11.1002H2.71429C2.05344 11.1002 1.5 10.5723 1.5 9.90026C1.5 9.22824 2.05344 8.70028 2.71429 8.70028H5.63897M3.53821 17.1165L5.63897 8.70028M5.63897 8.70028L8.13488 5.03107C8.13493 5.03101 8.13497 5.03094 8.13502 5.03087C8.50908 4.48005 9.25938 4.33765 9.81276 4.69941L5.63897 8.70028Z" stroke="#171717"/>
</svg>
