<svg width="24" height="24" viewBox="0 0 24 24" fill="none" xmlns="http://www.w3.org/2000/svg">
<path d="M14.4607 5.118C14.7886 4.9031 15.2329 4.9899 15.4514 5.31189L18.0964 9.20028H21.2857C21.68 9.20028 22 9.51387 22 9.90026C22 10.2866 21.68 10.6002 21.2857 10.6002H20.5143L14.4607 5.118ZM14.4607 5.118C14.1329 5.33219 14.0443 5.76688 14.2629 6.08887L14.4607 5.118ZM17.683 9.4815L17.8318 9.70028H18.0964H21.2857C21.4134 9.70028 21.5 9.7995 21.5 9.90026C21.5 10.001 21.4134 10.1002 21.2857 10.1002H20.5143H20.055L20.0161 10.5579L19.4661 17.0319C19.4661 17.0319 19.4661 17.032 19.4661 17.032C19.3966 17.8451 18.6829 18.5 17.8286 18.5H6.17143C5.317 18.5 4.60345 17.845 4.53465 17.0322L4.53463 17.032L3.98391 10.5579L3.94499 10.1002H3.48571H2.71429C2.58656 10.1002 2.5 10.001 2.5 9.90026C2.5 9.7995 2.58656 9.70028 2.71429 9.70028H5.90357H6.16817L6.31699 9.4815L8.96199 5.59311L8.96226 5.59271C9.02534 5.49979 9.16192 5.46864 9.26561 5.53645L9.26582 5.53658C9.36227 5.5996 9.38301 5.72045 9.32376 5.80759C9.32375 5.8076 9.32375 5.80762 9.32374 5.80763L7.20662 8.919L6.675 9.70028H7.62H16.38H17.325L16.7934 8.919L14.6765 5.80805C14.6765 5.80801 14.6765 5.80798 14.6765 5.80794C14.6167 5.71978 14.6379 5.59948 14.7342 5.53658L14.7348 5.53617C14.8374 5.4689 14.9746 5.49964 15.0377 5.59271L15.038 5.59311L17.683 9.4815Z" fill="#B4B4B4" stroke="#B4B4B4"/>
<path fill-rule="evenodd" clip-rule="evenodd" d="M16.8353 11.1551C17.0549 11.3618 17.0549 11.6971 16.8352 11.9038L11.5852 16.8449C11.3656 17.0517 11.0094 17.0517 10.7898 16.8449L8.16477 14.3745C7.94509 14.1677 7.94507 13.8325 8.16473 13.6258C8.38439 13.419 8.74055 13.419 8.96023 13.6257L11.1875 15.7219L16.0398 11.1551C16.2594 10.9483 16.6156 10.9483 16.8353 11.1551Z" fill="white"/>
</svg>
