<svg width="24" height="24" viewBox="0 0 24 24" fill="none" xmlns="http://www.w3.org/2000/svg">
<path d="M5 21C4.45 21 3.97917 20.8042 3.5875 20.4125C3.19583 20.0208 3 19.55 3 19V5C3 4.45 3.19583 3.97917 3.5875 3.5875C3.97917 3.19583 4.45 3 5 3H19C19.55 3 20.0208 3.19583 20.4125 3.5875C20.8042 3.97917 21 4.45 21 5V19C21 19.55 20.8042 20.0208 20.4125 20.4125C20.0208 20.8042 19.55 21 19 21H5Z" fill="#b4b4b4"/>
<path fill-rule="evenodd" clip-rule="evenodd" d="M18.7437 7.25846C19.0854 7.60306 19.0854 8.16175 18.7437 8.50634L10.577 16.7416C10.2353 17.0861 9.68135 17.0861 9.33964 16.7416L5.25631 12.6242C4.91459 12.2796 4.91456 11.7209 5.25625 11.3763C5.59795 11.0317 6.15197 11.0316 6.49369 11.3762L9.95832 14.8698L17.5063 7.25843C17.848 6.91385 18.402 6.91386 18.7437 7.25846Z" fill="white"/>
</svg>
