<svg width="24" height="24" viewBox="0 0 24 24" fill="none" xmlns="http://www.w3.org/2000/svg">
<path fill-rule="evenodd" clip-rule="evenodd" d="M16.7071 7.29289C17.0976 7.68342 17.0976 8.31658 16.7071 8.70711L9.41422 16C8.63317 16.781 7.36686 16.781 6.58581 16L3.29289 12.7071C2.90237 12.3166 2.90237 11.6834 3.29289 11.2929C3.68342 10.9024 4.31658 10.9024 4.70711 11.2929L7.99997 14.5858L15.2929 7.29289C15.6834 6.90237 16.3166 6.90237 16.7071 7.29289ZM22.7071 7.29289C23.0976 7.68342 23.0976 8.31658 22.7071 8.70711L14.7071 16.7071C14.3166 17.0976 13.6834 17.0976 13.2929 16.7071C12.9024 16.3166 12.9024 15.6834 13.2929 15.2929L21.2929 7.29289C21.6834 6.90237 22.3166 6.90237 22.7071 7.29289Z" fill="#171717"/>
</svg>
