<svg width="24" height="24" viewBox="0 0 24 24" fill="none" xmlns="http://www.w3.org/2000/svg">
<g id="action/plus">
<path id="Vector" d="M17.6569 6.35681C14.5286 3.22856 9.47139 3.22856 6.34315 6.35681C3.2149 9.48505 3.2149 14.5423 6.34315 17.6705C9.47139 20.7988 14.5286 20.7988 17.6569 17.6705C20.7851 14.5423 20.7851 9.48505 17.6569 6.35681ZM12 16.8786C11.5588 16.8786 11.2024 16.5222 11.2024 16.0809L11.2024 12.8113L7.93272 12.8113C7.49149 12.8113 7.1351 12.4549 7.13511 12.0137C7.13511 11.5724 7.49149 11.216 7.93272 11.216H11.2024V7.94638C11.2024 7.50515 11.5588 7.14876 12 7.14876C12.4412 7.14876 12.7976 7.50515 12.7976 7.94638V11.216H16.0673C16.5085 11.216 16.8649 11.5724 16.8649 12.0137C16.8649 12.4549 16.5085 12.8113 16.0673 12.8113L12.7976 12.8113L12.7976 16.0809C12.7976 16.5109 12.4356 16.8729 12 16.8786Z" fill="#171717"/>
</g>
</svg>
