<svg width="24" height="24" viewBox="0 0 24 24" fill="none" xmlns="http://www.w3.org/2000/svg">
<path d="M18.987 4C18.427 4 17.974 4.4601 17.974 5.0266V7.42032C16.832 6.01875 15.516 4 11.894 4C7.542 4 4 7.58855 4 12C4 16.4114 7.542 20 11.894 20C13.5576 20.0018 15.1792 19.4702 16.5266 18.4815C17.8741 17.4927 18.8785 16.0973 19.396 14.4951C19.4384 14.3646 19.4549 14.227 19.4448 14.0901C19.4347 13.9532 19.3981 13.8196 19.337 13.6971C19.276 13.5745 19.1917 13.4653 19.089 13.3757C18.9863 13.2862 18.8672 13.218 18.7385 13.1751C18.6098 13.1321 18.474 13.1153 18.3389 13.1256C18.2038 13.1359 18.072 13.173 17.9511 13.2349C17.7068 13.3598 17.5215 13.578 17.436 13.8414C17.0539 15.0253 16.312 16.0563 15.3166 16.787C14.3211 17.5177 13.1231 17.9105 11.894 17.9093C8.678 17.9093 6.062 15.2582 6.062 11.999C6.062 8.7398 8.678 6.10084 11.894 6.10084C14.171 6.10084 15.436 7.53686 16.468 9.04282H13.921C13.6523 9.04282 13.3947 9.15098 13.2047 9.3435C13.0147 9.53603 12.908 9.79715 12.908 10.0694C12.908 10.3417 13.0147 10.6028 13.2047 10.7953C13.3947 10.9879 13.6523 11.096 13.921 11.096H18.987C19.12 11.0964 19.2517 11.0701 19.3746 11.0187C19.4975 10.9674 19.6092 10.892 19.7033 10.7968C19.7974 10.7016 19.8721 10.5886 19.923 10.4641C19.9739 10.3396 20.0001 10.2062 20 10.0714V5.0266C19.9999 4.75437 19.8931 4.49333 19.7032 4.30083C19.5132 4.10834 19.2556 4.00013 18.987 4Z" fill="#171717"/>
</svg>
