<svg width="24" height="24" viewBox="0 0 24 24" fill="none" xmlns="http://www.w3.org/2000/svg">
<g id="action/share">
<path id="Vector" d="M17.383 13.6724C17.2229 13.592 16.9826 13.592 16.8225 13.592C15.8616 13.592 14.9807 13.9941 14.3401 14.7983L10.2562 12.9486C10.4164 12.3857 10.4164 11.7423 10.2562 11.099L14.3401 9.24929C15.4612 10.6164 17.4631 10.7773 18.8244 9.6514C20.1857 8.52551 20.3458 6.51499 19.2248 5.14784C18.1037 3.78069 16.1018 3.61985 14.7405 4.74574C14.0198 5.30868 13.6194 6.19331 13.6194 7.15836C13.6194 7.3192 13.6194 7.56046 13.6995 7.7213L9.45545 9.6514C8.17423 8.44509 6.17232 8.44509 4.89109 9.73182C3.68995 11.0185 3.68995 13.0291 4.97117 14.3158C6.25239 15.5221 8.17423 15.5221 9.45545 14.3158L13.6995 16.2459C13.3792 18.0151 14.5003 19.704 16.2619 19.9452C18.0236 20.2669 19.7052 19.141 19.9455 17.3718C20.2658 15.6025 19.1447 13.9941 17.383 13.6724Z" fill="#171717"/>
</g>
</svg>
