<svg width="56" height="56" viewBox="0 0 56 56" fill="none" xmlns="http://www.w3.org/2000/svg">
<g filter="url(#filter0_b_3969_2762)">
<rect width="56" height="56" rx="28" fill="#171717" fill-opacity="0.75"/>
<rect x="0.5" y="0.5" width="55" height="55" rx="27.5" stroke="#00D282"/>
</g>
<path d="M37.8147 29.5119C37.6131 29.5287 37.4283 29.5287 37.2603 29.5287C36.4203 29.5287 35.6811 29.5119 35.0427 29.4615V30.8559C35.0427 31.2759 35.2107 31.4439 35.6475 31.4607C36.3195 31.4775 37.3275 31.4607 38.1675 31.4439C37.9323 31.3599 37.8147 31.1583 37.8147 30.8055V29.5119ZM41.2251 26.1855C39.9987 26.1855 39.3939 26.1351 36.3195 26.1351C33.8499 26.1351 33.6651 26.2863 33.6651 26.7399C33.6651 27.1935 33.9339 27.2775 37.2435 27.2775C38.6211 27.2775 40.3851 27.1599 41.4939 26.9415C41.7627 26.8911 41.9475 27.0255 41.9979 27.3615L42.2163 28.6047C42.2667 28.8903 42.0819 29.0919 41.8299 29.1423C41.3931 29.2095 40.8387 29.2935 40.2507 29.3439V30.7215C40.2507 31.1416 40.4187 31.3264 40.8555 31.3264C41.4099 31.3264 41.9979 31.2423 42.4515 31.1751C42.8043 31.1247 43.0227 31.3263 43.0227 31.6791V32.9223C43.0227 33.2247 42.8547 33.3927 42.4683 33.4599C41.4267 33.6447 39.0411 33.7455 36.4203 33.7455C34.0683 33.7455 31.8507 33.6615 30.3891 33.4599C30.0027 33.4095 29.8347 33.2415 29.8347 32.9223V31.6791C29.8347 31.3263 30.0363 31.1415 30.3891 31.1751C31.1283 31.2423 31.8339 31.3263 32.8755 31.3767C32.7075 31.2759 32.6067 31.0743 32.6067 30.7719V29.0247C31.5651 28.6047 31.2291 27.8823 31.2291 26.6895C31.2291 24.4887 32.6235 23.9007 36.2859 23.9007H38.7555C39.1923 23.9007 39.3771 23.7328 39.3771 23.4304C39.3771 23.1112 39.2091 22.9935 38.7891 22.9935C37.1931 22.9935 33.9843 23.0775 32.0019 23.2791C31.7331 23.3127 31.5651 23.1112 31.5651 22.7751V21.5319C31.5651 21.2295 31.6995 21.0615 32.0019 21.0279C33.9507 20.8599 36.1515 20.7423 38.2515 20.7423C38.8899 20.7423 39.5115 20.7591 40.1163 20.776C41.1915 20.8263 41.7963 21.3975 41.7963 22.4055C41.7963 23.2287 41.4267 23.8335 40.8051 24.1023H41.2251C41.4771 24.1023 41.6619 24.2871 41.6619 24.5727V25.6815C41.6619 25.9839 41.4939 26.1855 41.2251 26.1855Z" fill="#00D282"/>
<path d="M14.8564 23.464C14.8564 21.3472 16.234 20.2048 18.8044 20.2048C21.3748 20.2048 22.7524 21.3472 22.7524 23.464C22.7524 25.228 21.7948 26.32 19.9804 26.6224V27.16C19.9804 27.4792 20.182 27.6808 20.5852 27.6808C21.3412 27.6808 22.1476 27.6472 22.9708 27.5968C23.3236 27.58 23.542 27.748 23.542 28.1008V29.092C23.542 29.3944 23.374 29.596 22.9876 29.6296C22.282 29.6968 20.4004 29.7472 18.7876 29.7472C16.9396 29.7472 15.814 29.7136 14.6884 29.6296C14.302 29.596 14.134 29.4112 14.134 29.092V28.1008C14.134 27.748 14.3356 27.58 14.6884 27.5968C15.4444 27.6472 16.6204 27.6976 17.914 27.7312C17.6788 27.6136 17.5444 27.3784 17.5444 27.1096V26.6224C15.7804 26.2864 14.8564 25.2112 14.8564 23.464ZM26.5828 30.3016C26.5828 30.6544 26.3812 30.856 26.0284 30.856H24.7012C24.3484 30.856 24.1468 30.6544 24.1468 30.3016V20.5576C24.1468 20.2048 24.3484 20.0032 24.7012 20.0032H26.0284C26.3812 20.0032 26.5828 20.2048 26.5828 20.5576V24.3376C26.7676 24.052 27.154 23.8672 27.6244 23.8672H28.162C28.498 23.8672 28.6828 24.052 28.6828 24.388V25.6144C28.6828 25.9504 28.498 26.1352 28.162 26.1352H27.5572C26.986 26.1352 26.5828 26.5216 26.5828 27.0592V30.3016ZM26.5324 35.0056C24.4156 35.2072 21.862 35.308 19.2244 35.308C17.0236 35.308 15.7972 34.1992 15.7972 32.2168C15.7972 31.6792 15.8476 31.3432 15.898 31.024C15.9652 30.6376 16.1332 30.4696 16.4524 30.4696H17.7796C18.166 30.4696 18.3844 30.688 18.334 31.024C18.3004 31.276 18.2332 31.6456 18.2332 31.9312C18.2332 32.6704 18.6868 33.04 19.5268 33.04C22.0636 33.04 24.5332 32.9056 26.3308 32.7376C26.6836 32.704 26.9356 32.9056 26.9524 33.2584L27.0364 34.4512C27.0532 34.7704 26.8852 34.972 26.5324 35.0056ZM18.8044 24.7072C19.8124 24.7072 20.35 24.2704 20.35 23.464C20.35 22.6576 19.8124 22.2208 18.8044 22.2208C17.7964 22.2208 17.2588 22.6576 17.2588 23.464C17.2588 24.2704 17.7964 24.7072 18.8044 24.7072Z" fill="#00D282"/>
<defs>
<filter id="filter0_b_3969_2762" x="-4" y="-4" width="64" height="64" filterUnits="userSpaceOnUse" color-interpolation-filters="sRGB">
<feFlood flood-opacity="0" result="BackgroundImageFix"/>
<feGaussianBlur in="BackgroundImageFix" stdDeviation="2"/>
<feComposite in2="SourceAlpha" operator="in" result="effect1_backgroundBlur_3969_2762"/>
<feBlend mode="normal" in="SourceGraphic" in2="effect1_backgroundBlur_3969_2762" result="shape"/>
</filter>
</defs>
</svg>
