<svg width="24" height="24" viewBox="0 0 24 24" fill="none" xmlns="http://www.w3.org/2000/svg">
<g id="alert/success">
<path id="Vector" fill-rule="evenodd" clip-rule="evenodd" d="M12 20C16.4184 20 20 16.4184 20 12C20 7.5816 16.4184 4 12 4C7.5816 4 4 7.5816 4 12C4 16.4184 7.5816 20 12 20ZM14.8288 9.1712C14.979 9.02119 15.1827 8.93701 15.395 8.93716C15.6073 8.93731 15.8108 9.02178 15.9608 9.172C16.1108 9.32222 16.195 9.52588 16.1948 9.73817C16.1947 9.95046 16.1102 10.154 15.96 10.304L11.4376 14.8264L11.4344 14.8296C11.3603 14.9041 11.2721 14.9633 11.1751 15.0037C11.078 15.044 10.9739 15.0648 10.8688 15.0648C10.7637 15.0648 10.6596 15.044 10.5625 15.0037C10.4655 14.9633 10.3773 14.9041 10.3032 14.8296L10.3 14.8264L8.04 12.5664C7.96359 12.4926 7.90265 12.4043 7.86072 12.3067C7.81879 12.2091 7.79672 12.1041 7.7958 11.9979C7.79488 11.8917 7.81512 11.7864 7.85534 11.688C7.89557 11.5897 7.95497 11.5004 8.03008 11.4253C8.1052 11.3502 8.19452 11.2908 8.29284 11.2505C8.39115 11.2103 8.4965 11.1901 8.60272 11.191C8.70894 11.1919 8.81392 11.214 8.91152 11.2559C9.00913 11.2978 9.0974 11.3588 9.1712 11.4352L10.8688 13.132L14.8288 9.172V9.1712Z" fill="#171717"/>
</g>
</svg>
