<svg width="24" height="24" viewBox="0 0 24 24" fill="none" xmlns="http://www.w3.org/2000/svg">
<path fill-rule="evenodd" clip-rule="evenodd" d="M7.44 16.98C4.99875 15.7875 3.375 13.665 3.375 11.25C3.375 7.5225 7.24125 4.5 12 4.5C16.7587 4.5 20.625 7.5225 20.625 11.25C20.625 14.9775 16.7587 18 12 18C11.4563 18 10.92 17.9587 10.4062 17.8837L7.0275 20.1825C6.93 20.25 6.79875 20.2463 6.70125 20.1788C6.60375 20.1075 6.5625 19.9838 6.59625 19.8713L7.44 16.98ZM9.43875 12.675H10.815L10.9875 13.1138C11.085 13.365 11.3663 13.4887 11.6175 13.3912C11.8687 13.2937 11.9925 13.0087 11.895 12.7612L10.5825 9.38625C10.5112 9.19875 10.3313 9.075 10.1287 9.075C9.92625 9.075 9.74625 9.19875 9.675 9.38625L8.3625 12.7612C8.265 13.0125 8.38875 13.2937 8.64 13.3912C8.89125 13.4887 9.1725 13.365 9.27 13.1138L9.4425 12.675H9.43875ZM16.05 11.7075L17.2388 13.2375C17.4038 13.4513 17.7112 13.4887 17.925 13.3237C18.1388 13.1587 18.1762 12.8512 18.0112 12.6412L16.9313 11.2537L18.0112 9.86625C18.1762 9.6525 18.1388 9.34875 17.925 9.18375C17.7112 9.01875 17.4075 9.05625 17.2388 9.27L16.05 10.8V9.57C16.05 9.3 15.8325 9.0825 15.5625 9.0825C15.2925 9.0825 15.075 9.3 15.075 9.57V12.945C15.075 13.215 15.2925 13.4325 15.5625 13.4325C15.8325 13.4325 16.05 13.215 16.05 12.945V11.715V11.7075ZM12.45 9.5625V12.9375C12.45 13.2075 12.6675 13.425 12.9375 13.425H14.25C14.52 13.425 14.7375 13.2075 14.7375 12.9375C14.7375 12.6675 14.52 12.45 14.25 12.45H13.425V9.5625C13.425 9.2925 13.2075 9.075 12.9375 9.075C12.6675 9.075 12.45 9.2925 12.45 9.5625ZM6.825 10.05V12.9375C6.825 13.2075 7.0425 13.425 7.3125 13.425C7.5825 13.425 7.8 13.2075 7.8 12.9375V10.05H8.625C8.895 10.05 9.1125 9.8325 9.1125 9.5625C9.1125 9.2925 8.895 9.075 8.625 9.075H6C5.73 9.075 5.5125 9.2925 5.5125 9.5625C5.5125 9.8325 5.73 10.05 6 10.05H6.825ZM9.8175 11.7H10.4325L10.125 10.9088L9.8175 11.7Z" fill="#171717"/>
</svg>
