<svg width="28" height="28" viewBox="0 0 28 28" fill="none" xmlns="http://www.w3.org/2000/svg">
<g id="action/plus">
<path id="Vector" d="M22.1667 12.8333H15.1667V5.83329C15.1667 5.52387 15.0438 5.22713 14.825 5.00833C14.6062 4.78954 14.3095 4.66663 14.0001 4.66663C13.6907 4.66663 13.3939 4.78954 13.1751 5.00833C12.9563 5.22713 12.8334 5.52387 12.8334 5.83329V12.8333H5.83341C5.524 12.8333 5.22725 12.9562 5.00846 13.175C4.78966 13.3938 4.66675 13.6905 4.66675 14C4.66675 14.3094 4.78966 14.6061 5.00846 14.8249C5.22725 15.0437 5.524 15.1666 5.83341 15.1666H12.8334V22.1666C12.8334 22.476 12.9563 22.7728 13.1751 22.9916C13.3939 23.2104 13.6907 23.3333 14.0001 23.3333C14.3095 23.3333 14.6062 23.2104 14.825 22.9916C15.0438 22.7728 15.1667 22.476 15.1667 22.1666V15.1666H22.1667C22.4762 15.1666 22.7729 15.0437 22.9917 14.8249C23.2105 14.6061 23.3334 14.3094 23.3334 14C23.3334 13.6905 23.2105 13.3938 22.9917 13.175C22.7729 12.9562 22.4762 12.8333 22.1667 12.8333Z" fill="white"/>
</g>
</svg>
