<svg width="32" height="32" viewBox="0 0 32 32" fill="none" xmlns="http://www.w3.org/2000/svg">
<path d="M16.3999 23.0669L10.2666 16.9336C10.1332 16.8002 10.039 16.6558 9.9839 16.5002C9.9279 16.3447 9.8999 16.178 9.8999 16.0002C9.8999 15.8225 9.9279 15.6558 9.9839 15.5002C10.039 15.3447 10.1332 15.2002 10.2666 15.0669L16.3999 8.93356C16.6443 8.68912 16.9555 8.56689 17.3332 8.56689C17.711 8.56689 18.0221 8.68912 18.2666 8.93356C18.511 9.17801 18.6332 9.48912 18.6332 9.86689C18.6332 10.2447 18.511 10.5558 18.2666 10.8002L13.0666 16.0002L18.2666 21.2002C18.511 21.4447 18.6332 21.7558 18.6332 22.1336C18.6332 22.5113 18.511 22.8224 18.2666 23.0669C18.0221 23.3113 17.711 23.4336 17.3332 23.4336C16.9555 23.4336 16.6443 23.3113 16.3999 23.0669Z" fill="#444444"/>
</svg>
