<svg width="48" height="48" viewBox="0 0 48 48" fill="none" xmlns="http://www.w3.org/2000/svg">
<rect x="5.5" y="11" width="37" height="26" rx="8" fill="#F4F4F4"/>
<path d="M17.5898 20.418C17.5957 21.8418 18.5391 23.2129 20.1211 23.7695L19.5117 24.6367C18.3691 24.1973 17.5078 23.3301 17.0566 22.2461C16.6055 23.4531 15.709 24.4082 14.4727 24.8828L13.875 24.0039C15.5098 23.4238 16.4824 21.9648 16.4883 20.3828V19.1406H17.5898V20.418ZM15.7852 28.7734V25.457H16.9102V27.8711H22.875V28.7734H15.7852ZM19.3125 21.8125V20.8984H21.5273V18.5078H22.6406V26.3359H21.5273V21.8125H19.3125ZM28.793 19.2461V20.1484H25.7578V21.3203H28.6758V22.1758H25.7578V23.4531C27.1641 23.4414 28.084 23.3887 29.168 23.1836L29.2734 24.0977C28.043 24.3262 27.041 24.373 25.3711 24.3672H24.6914V19.2461H28.793ZM26.0742 26.2891V25.3867H33.2109V28.9961H32.1094V26.2891H26.0742ZM29.8242 24.8008V18.6953H30.8672V21.1797H32.1562V18.5078H33.2109V24.8828H32.1562V22.082H30.8672V24.8008H29.8242Z" fill="#171717"/>
</svg>
