<svg width="48" height="48" viewBox="0 0 48 48" fill="none" xmlns="http://www.w3.org/2000/svg">
<rect x="5.5" y="11" width="37" height="26" rx="8" fill="#F4F4F4"/>
<path d="M19.0781 20.2305V21.1328H13.8633V20.2305H15.9258V18.8008H17.0273V20.2305H19.0781ZM14.2031 24.1797C14.1973 22.7676 15.1582 21.7656 16.4766 21.7656C17.8066 21.7656 18.7559 22.7676 18.7617 24.1797C18.7559 25.6152 17.8066 26.623 16.4766 26.6172C15.1582 26.623 14.1973 25.6152 14.2031 24.1797ZM15.1875 24.1797C15.1816 25.0703 15.7207 25.668 16.4766 25.668C17.2324 25.668 17.7773 25.0703 17.7773 24.1797C17.7773 23.3066 17.2324 22.6973 16.4766 22.6914C15.7207 22.6973 15.1816 23.3066 15.1875 24.1797ZM19.5586 28.5039V18.7305H20.6133V22.8672H21.8203V18.4961H22.875V28.9961H21.8203V23.7812H20.6133V28.5039H19.5586ZM33.2695 18.4961V28.9961H32.2031V18.4961H33.2695ZM24.1055 26.1016C25.5938 25.2051 26.3496 23.2949 26.3555 21.4258V20.582H24.4219V19.6797H29.2266V20.582H27.4219V21.4258C27.4219 23.2188 28.1484 25.0176 29.625 25.8672L28.957 26.6875C27.9551 26.0898 27.2695 25.0176 26.9004 23.752C26.5254 25.123 25.8105 26.2949 24.7852 26.9336L24.1055 26.1016ZM28.4531 23.125V22.2109H30.082V18.7188H31.1367V28.4688H30.082V23.125H28.4531Z" fill="#171717"/>
</svg>
